<svg width="49" height="49" viewBox="0 0 40 40" fill="none" xmlns="http://www.w3.org/2000/svg">
<g clip-path="url(#clip0_532_9)">
<path d="M20 40C31.0457 40 40 31.0457 40 20C40 8.9543 31.0457 0 20 0C8.9543 0 0 8.9543 0 20C0 31.0457 8.9543 40 20 40Z" fill="#93B7FF"/>
<path d="M1.46729 27.5C4.43604 34.8263 11.6085 40 19.9998 40C28.391 40 35.5635 34.8263 38.5323 27.5H1.46729Z" fill="#DCB2FF"/>
<path d="M19.9998 27.5H1.46729C2.89979 31.035 5.31354 34.0575 8.37104 36.25H19.9998V27.5Z" fill="#2272FD"/>
<path d="M36.9625 22.5288L36.9462 22.5125L36.9175 22.5413L36.9625 22.5288Z" fill="#F8AD89"/>
<path d="M21.2949 18.3312L27.9162 24.9525L36.9162 22.5412L23.7062 9.33124L21.2949 18.3312Z" fill="#F8AD89"/>
<path d="M27.9164 24.9525L21.2939 18.33L18.8701 27.3762L27.9164 24.9525ZM22.7239 26.345C22.5989 26.3775 22.5239 26.3975 22.7239 26.345V26.345ZM22.8639 26.3075C22.8476 26.3112 22.8314 26.3162 22.8151 26.32C22.8314 26.315 22.8451 26.3112 22.8639 26.3075ZM39.9739 19.4837L36.9451 22.5125L36.9164 22.5412L23.7064 9.33124L23.6714 9.29624L30.1676 2.79999C35.9064 6.19874 39.7926 12.3737 39.9739 19.4837Z" fill="#2272FD"/>
<path d="M23.0024 26.27C23.0112 26.2675 23.0162 26.2662 23.0162 26.2662C23.0149 26.2662 23.0137 26.2675 23.0124 26.2675C23.0112 26.2675 23.0062 26.2687 23.0024 26.27Z" fill="#0C6667"/>
</g>
<defs>
<clipPath id="clip0_532_9">
<rect width="40" height="40" fill="white"/>
</clipPath>
</defs>
</svg>
